<svg width="60" height="60" viewBox="0 0 60 60" fill="none" xmlns="http://www.w3.org/2000/svg">
<g clip-path="url(#clip0_2_5)">
<mask id="mask0_2_5" style="mask-type:luminance" maskUnits="userSpaceOnUse" x="0" y="0" width="60" height="60">
<path d="M60 0H0V60H60V0Z" fill="white"/>
</mask>
<g mask="url(#mask0_2_5)">
<mask id="mask1_2_5" style="mask-type:luminance" maskUnits="userSpaceOnUse" x="0" y="0" width="28" height="27">
<path fill-rule="evenodd" clip-rule="evenodd" d="M5.57852 4.37929C6.93116 1.23482 10.5768 -0.217762 13.7213 1.13486C15.7264 1.99741 17.0436 3.79238 17.3841 5.79523C19.0724 4.66506 21.2813 4.38689 23.2865 5.24944C26.431 6.60207 27.8835 10.2477 26.5309 13.3922C25.6683 15.3973 23.8733 16.7146 21.8705 17.055C23.0007 18.7433 23.2788 20.9522 22.4163 22.9574C21.0636 26.1019 17.418 27.5544 14.2736 26.2018C12.2684 25.3392 10.9512 23.5442 10.6107 21.5414C8.92251 22.6716 6.71356 22.9497 4.70838 22.0872C1.5639 20.7346 0.111325 17.0889 1.46395 13.9445C2.3265 11.9393 4.12147 10.6221 6.12431 10.2816C4.99413 8.59342 4.71598 6.38447 5.57852 4.37929ZM13.179 11.5147C11.9474 12.0055 11.3468 13.4016 11.8375 14.6332C12.3282 15.8647 13.7243 16.4653 14.9559 15.9746C16.1874 15.4838 16.7881 14.0877 16.2973 12.8561C15.8067 11.6247 14.4104 11.0241 13.179 11.5147Z" fill="white"/>
</mask>
<g mask="url(#mask1_2_5)">
<path d="M17.3841 5.79522L15.4377 6.12615L15.9487 9.13216L18.4824 7.43591L17.3841 5.79522ZM21.8705 17.055L21.5396 15.1086L18.5336 15.6196L20.2298 18.1533L21.8705 17.055ZM10.6107 21.5414L12.5571 21.2105L12.0461 18.2045L9.51235 19.9007L10.6107 21.5414ZM6.1243 10.2816L6.45523 12.2282L9.46123 11.717L7.765 9.18326L6.1243 10.2816ZM14.5015 -0.678857C10.3553 -2.46238 5.54831 -0.547067 3.7648 3.59909L7.39224 5.15948C8.31398 3.0167 10.7983 2.02684 12.941 2.94858L14.5015 -0.678857ZM19.3306 5.4643C18.8826 2.82938 17.1472 0.459263 14.5015 -0.678857L12.941 2.94858C14.3056 3.53556 15.2046 4.75537 15.4377 6.12615L19.3306 5.4643ZM24.0666 3.43572C21.4208 2.2976 18.5068 2.66769 16.2858 4.15453L18.4824 7.43591C19.6379 6.66241 21.1417 6.47619 22.5063 7.06315L24.0666 3.43572ZM28.3446 14.1724C30.1281 10.0262 28.2129 5.21924 24.0666 3.43572L22.5063 7.06315C24.6491 7.9849 25.6389 10.4692 24.7172 12.612L28.3446 14.1724ZM22.2014 19.0015C24.8364 18.5535 27.2065 16.8182 28.3446 14.1724L24.7172 12.612C24.1302 13.9765 22.9104 14.8755 21.5396 15.1086L22.2014 19.0015ZM24.23 23.7375C25.3682 21.0917 24.9981 18.1777 23.5112 15.9567L20.2298 18.1533C21.0033 19.3088 21.1896 20.8127 20.6026 22.1772L24.23 23.7375ZM13.4934 28.0155C17.6396 29.7991 22.4465 27.8838 24.23 23.7375L20.6026 22.1772C19.6808 24.32 17.1965 25.3098 15.0538 24.3881L13.4934 28.0155ZM8.66424 21.8724C9.1122 24.5073 10.8476 26.8774 13.4934 28.0155L15.0538 24.3881C13.6892 23.8011 12.7902 22.5813 12.5571 21.2105L8.66424 21.8724ZM3.92818 23.901C6.57398 25.0391 9.4881 24.669 11.7091 23.1822L9.51235 19.9007C8.35691 20.6742 6.85311 20.8605 5.48856 20.2735L3.92818 23.901ZM-0.349771 13.1644C-2.13329 17.3105 -0.217982 22.1174 3.92818 23.901L5.48856 20.2735C3.34578 19.3518 2.35593 16.8675 3.27767 14.7247L-0.349771 13.1644ZM5.79338 8.33515C3.15846 8.78313 0.788349 10.5185 -0.349771 13.1644L3.27767 14.7247C3.86464 13.3602 5.08446 12.4611 6.45523 12.2282L5.79338 8.33515ZM3.7648 3.59909C2.62667 6.24491 2.99676 9.15901 4.48361 11.38L7.765 9.18326C6.99149 8.02783 6.80527 6.52402 7.39224 5.15948L3.7648 3.59909ZM13.6717 13.9023C13.5846 13.6838 13.6912 13.4361 13.9097 13.349L12.4481 9.68058C10.2036 10.5749 9.109 13.1195 10.0033 15.364L13.6717 13.9023ZM14.2251 14.1404C14.0066 14.2275 13.7588 14.121 13.6717 13.9023L10.0033 15.364C10.8976 17.6085 13.4422 18.7031 15.6867 17.8087L14.2251 14.1404ZM14.4632 13.587C14.5503 13.8056 14.4437 14.0533 14.2251 14.1404L15.6867 17.8087C17.9312 16.9144 19.0258 14.3698 18.1315 12.1254L14.4632 13.587ZM13.9097 13.349C14.1283 13.2619 14.3761 13.3684 14.4632 13.587L18.1315 12.1254C17.2371 9.88082 14.6927 8.78626 12.4481 9.68058L13.9097 13.349Z" fill="white"/>
</g>
<path fill-rule="evenodd" clip-rule="evenodd" d="M41.8749 6.1229C39.3875 8.43093 37.1416 10.8574 35.1516 13.2946C31.8916 8.80405 27.8496 4.24895 23.2718 0C21.374 1.76084 19.5652 3.60784 17.8661 5.50333C19.4799 4.6233 21.467 4.46679 23.2865 5.24943C26.431 6.60206 27.8835 10.2477 26.5309 13.3922C25.6683 15.3973 23.8734 16.7146 21.8705 17.055C22.6941 18.2852 23.0652 19.7918 22.8723 21.2945L27.4187 15.3072L32.4761 19.149L28.6842 24.1423L22.8706 21.3076C22.7981 21.8628 22.6486 22.4175 22.4164 22.9574C22.4113 22.9689 22.4064 22.9805 22.4013 22.9921L22.3947 23.0071L32.4077 27.8908L30.5644 31.6675L26.6217 32.0286L22.3485 29.9228L22.7822 33.2669L27.1195 35.1861L33.3739 49.1196L35.1652 48.8756L28.425 33.8654L27.9305 33.6485L29.0061 33.5499L44.0783 44.6869L45.3014 43.0723L44.1401 48.2684L40.3135 53.5741V59.0992C44.7936 57.1684 48.6554 54.0212 51.5086 50.0591L46.0616 43.5369L48.9292 41.142L53.577 46.7072C55.6055 42.8273 56.7563 38.3899 56.7563 33.6759C56.7563 27.3055 50.5402 14.1664 41.8749 6.1229ZM17.0307 26.7C16.1143 26.7462 15.1735 26.5889 14.2736 26.2018C12.2685 25.3392 10.9512 23.5442 10.6107 21.5414C9.34775 22.3869 7.79331 22.7556 6.25079 22.5265C4.28322 26.7018 3.18103 30.5614 3.18103 33.6759C3.18103 45.7343 10.7117 55.9831 21.1992 59.7186L22.5957 50.7602L11.6342 34.2253L17.0307 26.7ZM39.0991 38.7264L45.9119 29.758L50.5593 33.2885L43.7465 42.2613L39.0991 38.7264ZM37.7046 37.6931L44.949 28.151L40.0695 24.4481L32.8252 33.9901L37.7046 37.6931ZM34.7249 27.0906L32.6321 31.3812L38.8128 23.2488L34.2033 19.7465L30.2738 24.9197L34.7249 27.0906Z" fill="white"/>
</g>
</g>
<defs>
<clipPath id="clip0_2_5">
<rect width="60" height="60" fill="white"/>
</clipPath>
</defs>
</svg>
