<svg width="547" height="547" viewBox="0 0 547 547" fill="none" xmlns="http://www.w3.org/2000/svg">
<g clip-path="url(#clip0_10_2)">
<mask id="path-1-inside-1_10_2" fill="white">
<path fill-rule="evenodd" clip-rule="evenodd" d="M50.8573 39.9245C63.1888 11.2574 96.4247 -1.98532 125.092 10.3461C143.372 18.2097 155.381 34.5738 158.485 52.8331C173.876 42.5297 194.014 39.9938 212.295 47.8573C240.962 60.1888 254.204 93.4247 241.873 122.092C234.009 140.372 217.645 152.381 199.386 155.485C209.689 170.876 212.225 191.014 204.362 209.295C192.03 237.962 158.794 251.204 130.127 238.873C111.847 231.009 99.8384 214.645 96.7341 196.386C81.3433 206.689 61.205 209.225 42.9245 201.362C14.2573 189.03 1.01467 155.794 13.3461 127.127C21.2097 108.847 37.5738 96.8385 55.833 93.7342C45.5296 78.3433 42.9938 58.205 50.8573 39.9245ZM120.148 104.976C108.92 109.45 103.445 122.178 107.918 133.406C112.392 144.633 125.12 150.109 136.348 145.635C147.575 141.161 153.051 128.433 148.577 117.205C144.104 105.978 131.375 100.503 120.148 104.976Z"/>
</mask>
<path d="M125.092 10.3461L132.205 -6.18894L132.205 -6.18894L125.092 10.3461ZM50.8573 39.9245L67.3924 47.0372L67.3924 47.0372L50.8573 39.9245ZM158.485 52.8331L140.74 55.85L145.399 83.2548L168.498 67.7907L158.485 52.8331ZM199.386 155.485L196.369 137.74L168.964 142.399L184.428 165.498L199.386 155.485ZM96.7341 196.386L114.479 193.369L109.82 165.964L86.7207 181.428L96.7341 196.386ZM42.9245 201.362L50.0372 184.827L50.0372 184.827L42.9245 201.362ZM55.833 93.7342L58.85 111.48L86.2547 106.82L70.7907 83.7207L55.833 93.7342ZM132.205 -6.18894C94.4054 -22.4487 50.5819 -4.98746 34.3222 32.8117L67.3924 47.0372C75.7956 27.5022 98.444 18.478 117.979 26.8812L132.205 -6.18894ZM176.23 49.8162C172.146 25.7945 156.325 4.18692 132.205 -6.18894L117.979 26.8812C130.419 32.2325 138.615 43.3531 140.74 55.85L176.23 49.8162ZM219.407 31.3223C195.286 20.9464 168.72 24.3204 148.472 37.8754L168.498 67.7907C179.032 60.7389 192.742 59.0412 205.182 64.3924L219.407 31.3223ZM258.408 129.205C274.668 91.4054 257.207 47.582 219.407 31.3223L205.182 64.3924C224.717 72.7956 233.741 95.4441 225.338 114.979L258.408 129.205ZM202.403 173.23C226.425 169.146 248.032 153.326 258.408 129.205L225.338 114.979C219.987 127.419 208.866 135.615 196.369 137.74L202.403 173.23ZM220.897 216.407C231.273 192.286 227.899 165.72 214.344 145.472L184.428 165.498C191.48 176.032 193.178 189.742 187.827 202.182L220.897 216.407ZM123.015 255.408C160.814 271.668 204.637 254.207 220.897 216.407L187.827 202.182C179.423 221.717 156.775 230.741 137.24 222.338L123.015 255.408ZM78.9888 199.403C83.0727 223.425 98.8936 245.032 123.015 255.408L137.24 222.338C124.8 216.987 116.604 205.866 114.479 193.369L78.9888 199.403ZM35.8117 217.897C59.9326 228.273 86.4996 224.899 106.748 211.344L86.7207 181.428C76.187 188.48 62.4773 190.178 50.0372 184.827L35.8117 217.897ZM-3.18895 120.015C-19.4487 157.814 -1.98747 201.637 35.8117 217.897L50.0372 184.827C30.5022 176.424 21.478 153.775 29.8812 134.24L-3.18895 120.015ZM52.8161 75.9888C28.7944 80.0728 7.18691 95.8936 -3.18895 120.015L29.8812 134.24C35.2324 121.8 46.3531 113.604 58.85 111.48L52.8161 75.9888ZM34.3222 32.8117C23.9463 56.9327 27.3203 83.4996 40.8754 103.748L70.7907 83.7207C63.7389 73.187 62.0412 59.4773 67.3924 47.0372L34.3222 32.8117ZM124.64 126.743C123.846 124.751 124.818 122.492 126.81 121.698L113.485 88.2546C93.0223 96.4078 83.0435 119.606 91.1968 140.068L124.64 126.743ZM129.685 128.913C127.693 129.707 125.434 128.736 124.64 126.743L91.1968 140.068C99.35 160.531 122.548 170.51 143.01 162.356L129.685 128.913ZM131.856 123.868C132.65 125.861 131.678 128.119 129.685 128.913L143.01 162.356C163.473 154.203 173.452 131.005 165.299 110.543L131.856 123.868ZM126.81 121.698C128.803 120.904 131.062 121.875 131.856 123.868L165.299 110.543C157.145 90.0801 133.948 80.1014 113.485 88.2546L126.81 121.698Z" fill="#EF4335" mask="url(#path-1-inside-1_10_2)"/>
<path fill-rule="evenodd" clip-rule="evenodd" d="M381.759 55.8204C359.082 76.862 338.607 98.983 320.465 121.202C290.745 80.2636 253.895 38.7363 212.161 0C194.859 16.053 178.369 32.8915 162.879 50.172C177.591 42.1491 195.707 40.7222 212.295 47.8573C240.962 60.1888 254.204 93.4248 241.873 122.092C234.009 140.372 217.645 152.381 199.386 155.485C206.894 166.7 210.277 180.435 208.519 194.135L249.967 139.551L296.073 174.575L261.504 220.097L208.503 194.254C207.842 199.316 206.479 204.373 204.362 209.295C204.316 209.4 204.271 209.506 204.225 209.611L204.165 209.748L295.45 254.271L278.645 288.702L242.701 291.994L203.743 272.796L207.697 303.283L247.239 320.78L304.258 447.807L320.589 445.583L259.141 308.74L254.633 306.762L264.439 305.863L401.847 407.396L412.997 392.676L402.41 440.047L367.524 488.417V538.788C408.368 521.185 443.575 492.493 469.586 456.372L419.928 396.911L446.071 375.078L488.443 425.814C506.936 390.442 517.428 349.988 517.428 307.012C517.428 248.935 460.758 129.15 381.759 55.8204ZM155.263 243.415C146.908 243.836 138.331 242.402 130.127 238.873C111.847 231.009 99.8385 214.645 96.7341 196.386C85.2199 204.094 71.0486 207.455 56.986 205.367C39.0483 243.431 29 278.618 29 307.012C29 416.944 97.6545 510.379 193.266 544.435L205.997 462.764L106.065 312.021L155.263 243.415ZM356.453 353.056L418.563 271.294L460.932 303.48L398.822 385.282L356.453 353.056ZM343.74 343.635L409.785 256.643L365.3 222.885L299.256 309.876L343.74 343.635ZM316.575 246.976L297.496 286.092L353.843 211.952L311.82 180.022L275.996 227.185L316.575 246.976Z" fill="#EF4335"/>
</g>
<defs>
<clipPath id="clip0_10_2">
<rect width="547" height="547" fill="white"/>
</clipPath>
</defs>
</svg>
