<svg width="47" height="47" viewBox="0 0 47 47" fill="none" xmlns="http://www.w3.org/2000/svg">
<g clip-path="url(#clip0_2_22)">
<path d="M32.9551 0.940921C33.8619 1.07714 34.7689 1.21235 35.6762 1.34513C36.236 1.42717 36.7954 1.51127 37.3545 1.59762C37.9973 1.6925 38.6431 1.76646 39.2891 1.83594C39.4103 1.71477 39.5314 1.5936 39.6563 1.46875C40.1716 1.43255 40.6887 1.42073 41.2053 1.41999C41.6732 1.41928 41.6732 1.41928 42.1506 1.41855C42.4786 1.41997 42.8066 1.42139 43.1446 1.42286C43.4726 1.42144 43.8006 1.42002 44.1385 1.41855C44.4505 1.41903 44.7624 1.4195 45.0838 1.41999C45.3718 1.4204 45.6598 1.42081 45.9566 1.42124C46.6328 1.46875 46.6328 1.46875 47 1.83594C47.0371 2.89074 47.0513 3.93652 47.0488 4.99146C47.0491 5.30792 47.0495 5.62439 47.0499 5.95044C47.0501 6.62088 47.0494 7.29133 47.0479 7.96177C47.0459 8.99169 47.0479 10.0216 47.0502 11.0515C47.05 11.7012 47.0495 12.351 47.0488 13.0007C47.0495 13.3109 47.0503 13.6211 47.051 13.9407C47.0422 16.114 47.0422 16.114 46.6328 16.5234C46.1175 16.5596 45.6004 16.5715 45.0838 16.5722C44.6159 16.5729 44.6159 16.5729 44.1385 16.5736C43.8105 16.5722 43.4825 16.5708 43.1446 16.5693C42.8165 16.5708 42.4885 16.5722 42.1506 16.5736C41.8386 16.5732 41.5267 16.5727 41.2053 16.5722C40.9173 16.5718 40.6293 16.5714 40.3326 16.571C39.6563 16.5234 39.6563 16.5234 39.2891 16.1563C38.5252 16.1099 37.7595 16.0917 36.9942 16.0874C36.5757 16.0822 36.1573 16.077 35.7262 16.0716C34.3747 16.1041 34.3747 16.1041 32.6797 16.8906C32.5585 24.1609 32.4374 31.4313 32.3125 38.9219C33.2819 38.9219 34.2513 38.9219 35.25 38.9219C35.9772 39.4827 35.9772 39.4827 36.3516 40.3906C36.485 41.7002 36.485 41.7002 36.4663 43.1675C36.4675 43.4143 36.4687 43.6612 36.4699 43.9155C36.4552 45.2631 36.3828 45.8516 35.6172 47C34.4883 47.107 33.4334 47.1426 32.3038 47.1309C31.7888 47.132 31.7888 47.132 31.2634 47.1332C30.1247 47.1343 28.9862 47.1275 27.8475 47.1205C27.0591 47.1194 26.2707 47.1187 25.4823 47.1184C23.8287 47.1167 22.1752 47.1114 20.5216 47.1033C18.3968 47.0929 16.2722 47.0889 14.1474 47.0872C12.5192 47.0857 10.891 47.0821 9.26287 47.0777C8.47916 47.0756 7.69545 47.0739 6.91175 47.0725C5.81884 47.07 4.72598 47.065 3.63308 47.0592C3.30594 47.0588 2.9788 47.0583 2.64175 47.0579C0.409323 47.0421 0.409323 47.0421 2.47955e-05 46.6328C-0.0916493 45.4805 -0.0679849 44.323 -0.0688229 43.1675C-0.0733195 42.8425 -0.0778161 42.5176 -0.082449 42.1828C-0.0831589 41.8721 -0.0838689 41.5613 -0.0846004 41.2412C-0.0861092 40.9551 -0.0876179 40.669 -0.0891724 40.3742C2.47955e-05 39.6563 2.47955e-05 39.6563 0.7344 38.9219C1.72154 38.8228 2.67734 38.8898 3.6719 38.9219C3.66823 38.43 3.66823 38.43 3.66449 37.9281C3.64242 34.8377 3.62565 31.7474 3.61483 28.6569C3.60908 27.0681 3.60128 25.4793 3.5888 23.8905C3.57683 22.3573 3.57024 20.8241 3.56739 19.2908C3.56535 18.7058 3.56138 18.1208 3.55543 17.5358C3.54744 16.7164 3.54633 15.8974 3.54684 15.078C3.5444 14.6116 3.54195 14.1452 3.53943 13.6647C3.68063 12.4066 3.88055 11.8956 4.77346 11.0156C5.60394 10.7919 5.60394 10.7919 6.49465 10.7402C6.79143 10.7194 7.08821 10.6986 7.39398 10.6771C7.61975 10.6677 7.84553 10.6582 8.07815 10.6484C8.14489 10.4089 8.21163 10.1694 8.28039 9.92267C9.63116 5.22615 9.63116 5.22615 10.9095 4.33597C11.9029 3.80789 12.9162 3.37495 13.9531 2.9375C14.2214 2.81686 14.4897 2.69622 14.7661 2.57193C15.692 2.15578 16.6231 1.75376 17.5562 1.35401C17.8517 1.22106 18.1473 1.08812 18.4518 0.951141C23.1149 -0.978632 28.1329 0.208045 32.9551 0.940921ZM17.0054 3.62598C16.5612 3.78786 16.117 3.94974 15.6593 4.11652C13.4724 4.98692 12.0023 5.63729 10.8937 7.78266C10.4574 8.84579 10.2813 9.49146 10.2813 10.6484C12.2632 10.9163 12.2632 10.9163 14.0034 10.0891C14.494 9.63115 14.973 9.16046 15.4377 8.67624C17.1786 7.22724 20.0753 7.5593 22.2378 7.4585C22.8111 7.42548 22.8111 7.42548 23.396 7.3918C23.764 7.37453 24.1321 7.35725 24.5112 7.33945C24.8457 7.32256 25.1801 7.30567 25.5247 7.28826C26.5155 7.3485 27.0772 7.54081 27.9063 8.07813C28.3167 8.89907 28.4079 9.48283 28.48 10.396C28.5108 10.6748 28.5415 10.9536 28.5732 11.2408C28.0565 12.7515 26.7051 13.2566 25.336 13.9531C23.7409 14.6867 22.1208 15.3578 20.4915 16.0114C20.1746 16.1463 19.8577 16.2812 19.5312 16.4202C19.2442 16.5373 18.9572 16.6545 18.6614 16.7752C17.9032 17.2223 17.9032 17.2223 17.688 18.1851C17.5411 19.0933 17.5411 19.0933 18.0152 19.7822C19.0856 20.4038 19.7355 20.1048 20.9297 19.8281C21.896 19.4401 22.8322 19.0371 23.7754 18.6003C24.3304 18.3519 24.8854 18.1038 25.4407 17.8559C26.3034 17.4678 27.1648 17.0775 28.0237 16.681C31.7829 14.9526 34.7283 13.9754 38.9219 13.9531C38.9219 10.6815 38.9219 7.40985 38.9219 4.03907C36.0293 3.39628 33.199 2.92524 30.27 2.52442C29.8017 2.45768 29.3333 2.39094 28.8508 2.32218C27.5581 2.14374 26.2653 1.98344 24.9688 1.83594C24.5686 1.78367 24.5686 1.78367 24.1603 1.73034C21.6448 1.54726 19.287 2.71286 17.0054 3.62598ZM40.7578 3.30469C40.7578 7.06102 40.7578 10.8173 40.7578 14.6875C42.2119 14.6875 43.666 14.6875 45.1641 14.6875C45.1641 10.9312 45.1641 7.17485 45.1641 3.30469C43.71 3.30469 42.256 3.30469 40.7578 3.30469ZM20.6773 9.08789C20.3239 9.11535 19.9706 9.1428 19.6065 9.17108C19.2693 9.20232 18.9321 9.23356 18.5846 9.26575C18.2771 9.29308 17.9696 9.32042 17.6527 9.34858C16.7499 9.49324 16.7499 9.49324 16.1563 10.6484C19.6703 10.6484 23.1842 10.6484 26.8047 10.6484C26.6835 10.1638 26.5624 9.67907 26.4375 9.17969C24.4567 8.7135 22.6854 8.89729 20.6773 9.08789ZM5.50784 13.2188C5.47295 14.1237 5.46173 15.0182 5.46615 15.9233C5.4661 16.2062 5.46604 16.4892 5.46599 16.7808C5.46625 17.7206 5.46911 18.6603 5.47198 19.6001C5.47266 20.2499 5.47319 20.8997 5.47355 21.5496C5.47496 23.2634 5.47857 24.9771 5.48262 26.6909C5.48703 28.7453 5.48873 30.7997 5.49087 32.8541C5.49443 35.9783 5.50147 39.1024 5.50784 42.2266C13.7475 42.2266 21.9872 42.2266 30.4766 42.2266C30.4766 34.1081 30.4766 25.9895 30.4766 17.625C25.6537 19.5364 25.6537 19.5364 20.9297 21.6641C20.3875 21.699 19.8437 21.7117 19.3003 21.71C18.8694 21.7114 18.8694 21.7114 18.4297 21.7128C17.625 21.6641 17.625 21.6641 16.5235 21.2969C16.1793 20.2642 16.1068 19.6124 16.1104 18.543C16.109 18.117 16.109 18.117 16.1075 17.6824C16.1563 16.8906 16.1563 16.8906 16.5235 15.7891C17.2498 15.5215 17.9873 15.2841 18.7266 15.0547C20.0836 14.4657 21.4249 13.8438 22.7656 13.2188C22.7656 13.0976 22.7656 12.9764 22.7656 12.8516C20.3669 12.8423 17.9681 12.8358 15.5694 12.8314C14.7526 12.8295 13.9359 12.827 13.1192 12.8239C11.948 12.8194 10.7769 12.8173 9.60571 12.8157C9.23814 12.8138 8.87057 12.8119 8.49187 12.81C8.15373 12.8099 7.8156 12.8099 7.46722 12.8099C7.16797 12.8091 6.86873 12.8083 6.56041 12.8074C5.8696 12.7762 5.8696 12.7762 5.50784 13.2188ZM1.83596 40.7578C1.83596 42.2119 1.83596 43.6659 1.83596 45.1641C12.4991 45.1641 23.1622 45.1641 34.1485 45.1641C34.1485 43.71 34.1485 42.2559 34.1485 40.7578C33.5426 40.7578 32.9367 40.7578 32.3125 40.7578C32.1914 41.7272 32.0702 42.6966 31.9453 43.6953C22.7363 43.6953 13.5272 43.6953 4.03909 43.6953C3.91792 42.7259 3.79674 41.7566 3.6719 40.7578C3.06604 40.7578 2.46018 40.7578 1.83596 40.7578Z" fill="white"/>
<path d="M23.1328 22.3984C23.6175 22.6408 24.1022 22.8831 24.6016 23.1328C24.0291 25.0013 22.8776 26.279 21.6411 27.7456C19.8152 29.9303 19.8152 29.9303 18.1084 32.2078C17.9628 32.4127 17.8173 32.6176 17.6674 32.8288C17.2815 33.3802 16.9022 33.9363 16.5234 34.4927C15.7891 35.25 15.7891 35.25 14.8553 35.4264C13.3812 35.1382 12.5902 34.2548 11.75 33.0469C11.6123 31.9912 11.6123 31.9912 11.75 31.2109C12.985 31.4168 13.9499 31.7318 15.0547 32.3125C18.541 28.0545 18.541 28.0545 21.9323 23.7209C22.3984 23.1328 22.3984 23.1328 23.1328 22.3984Z" fill="white"/>
</g>
<defs>
<clipPath id="clip0_2_22">
<rect width="47" height="47" fill="white"/>
</clipPath>
</defs>
</svg>
