<svg width="147" height="40" viewBox="0 0 147 40" fill="none" xmlns="http://www.w3.org/2000/svg">
<path d="M2.329 10.99C2.329 10.99 5.989 12.91 5.809 17.4C5.809 17.4 8.559 15.48 8.279 9.89C8.279 9.89 8.399 1.92 14.059 0C14.059 0 12.859 5.59 17.989 10.63C17.989 10.63 22.749 15.76 22.299 20.71C22.299 20.71 24.869 19.43 23.769 12.46C23.769 12.46 30.179 19.33 26.699 29.77C26.699 29.77 24.409 36.64 16.529 38.47C16.529 38.47 9.839 40.58 3.609 34.71C-0.560997 30.78 -1.001 22.71 1.689 17.85C1.689 17.85 3.609 14.37 2.329 10.98V10.99Z" fill="#EF4335"/>
<path d="M9.639 39.62C9.749 38.53 9.989 34.85 10.029 34.28C10.029 34.23 10.029 34.18 9.989 34.14L5.459 26.8C5.239 26.45 5.239 26.01 5.439 25.65L8.209 20.81C8.389 20.49 8.729 20.29 9.099 20.29H9.169C9.259 20.29 9.339 20.24 9.379 20.16L10.839 17.42C11.019 17.08 11.429 16.95 11.769 17.11L14.429 18.38C14.529 18.43 14.649 18.4 14.719 18.32L14.829 18.18C14.999 17.98 15.289 17.94 15.509 18.08L17.899 19.66C18.099 19.79 18.149 20.05 18.029 20.25L17.999 20.29C17.929 20.39 17.959 20.53 18.049 20.61L20.819 22.94C21.019 23.11 20.989 23.41 20.769 23.55C20.639 23.63 20.619 23.8 20.709 23.92L22.249 25.7C22.409 25.88 22.389 26.16 22.199 26.32L21.259 27.12C21.199 27.17 21.169 27.25 21.179 27.34L21.409 29.25C21.449 29.61 21.389 29.97 21.219 30.29L18.649 35.15C18.649 35.15 18.619 35.22 18.619 35.26L18.519 39.66C18.519 39.79 18.409 39.9 18.279 39.9H9.86901C9.72901 39.9 9.609 39.78 9.629 39.63L9.639 39.62Z" fill="white"/>
<path d="M50.3941 27.395C50.3941 28.235 50.3141 28.985 50.1541 29.655C49.9941 30.325 49.7241 30.895 49.3541 31.365C48.9841 31.835 48.4841 32.205 47.8741 32.455C47.2641 32.715 46.4941 32.845 45.5941 32.845C45.2941 32.845 44.9841 32.835 44.6641 32.805C44.3441 32.775 44.0341 32.725 43.7341 32.635L43.9441 29.085C44.2641 29.245 44.6141 29.325 44.9841 29.325C45.3241 29.325 45.5841 29.235 45.7841 29.055C45.9841 28.875 46.1241 28.655 46.2141 28.385C46.3041 28.115 46.3541 27.835 46.3741 27.535C46.3941 27.235 46.4041 26.955 46.4041 26.705V13.465H50.4041V27.405L50.3941 27.395ZM46.0641 9.37499C46.0641 8.73499 46.2941 8.18499 46.7441 7.73499C47.1941 7.28499 47.7441 7.05499 48.3841 7.05499C49.0241 7.05499 49.5741 7.28499 50.0241 7.73499C50.4741 8.18499 50.7041 8.73499 50.7041 9.37499C50.7041 10.015 50.4741 10.565 50.0241 11.015C49.5741 11.465 49.0241 11.695 48.3841 11.695C47.7441 11.695 47.1941 11.465 46.7441 11.015C46.2941 10.565 46.0641 10.015 46.0641 9.37499Z" fill="black"/>
<path d="M52.7941 19.945C52.7941 18.915 52.9841 17.975 53.3541 17.145C53.7241 16.305 54.2441 15.595 54.8941 14.995C55.5441 14.395 56.3141 13.945 57.1941 13.625C58.0741 13.305 59.0141 13.145 60.0141 13.145C61.0141 13.145 61.9541 13.305 62.8341 13.625C63.7141 13.945 64.4841 14.405 65.1341 14.995C65.7841 15.595 66.2941 16.305 66.6741 17.145C67.0441 17.985 67.2341 18.915 67.2341 19.945C67.2341 20.975 67.0441 21.915 66.6741 22.745C66.3041 23.585 65.7841 24.295 65.1341 24.895C64.4841 25.495 63.7241 25.945 62.8341 26.275C61.9541 26.595 61.0141 26.755 60.0141 26.755C59.0141 26.755 58.0741 26.595 57.1941 26.275C56.3141 25.955 55.5441 25.495 54.8941 24.895C54.2441 24.295 53.7341 23.585 53.3541 22.745C52.9841 21.905 52.7941 20.975 52.7941 19.945ZM56.7941 19.945C56.7941 20.925 57.0741 21.715 57.6341 22.325C58.1941 22.935 58.9841 23.235 59.9941 23.235C61.0041 23.235 61.7941 22.935 62.3541 22.325C62.9141 21.725 63.1941 20.925 63.1941 19.945C63.1941 18.965 62.9141 18.175 62.3541 17.565C61.7941 16.965 61.0041 16.655 59.9941 16.655C58.9841 16.655 58.1941 16.955 57.6341 17.565C57.0741 18.165 56.7941 18.965 56.7941 19.945Z" fill="black"/>
<path d="M69.5641 13.455H73.4041V15.215H73.4541C73.5741 14.965 73.7541 14.715 73.9841 14.465C74.2141 14.215 74.4941 13.995 74.8141 13.795C75.1341 13.595 75.5041 13.435 75.9041 13.315C76.3141 13.195 76.7541 13.125 77.2341 13.125C78.2441 13.125 79.0641 13.285 79.6941 13.595C80.3141 13.905 80.8041 14.335 81.1541 14.885C81.5041 15.435 81.7342 16.085 81.8642 16.835C81.9842 17.585 82.0541 18.395 82.0541 19.265V26.415H78.0541V20.065C78.0541 19.695 78.0441 19.305 78.0141 18.905C77.9841 18.505 77.9041 18.135 77.7741 17.795C77.6441 17.455 77.4341 17.185 77.1641 16.965C76.8841 16.755 76.4942 16.645 75.9742 16.645C75.4542 16.645 75.0442 16.735 74.7242 16.925C74.4042 17.115 74.1541 17.365 73.9941 17.675C73.8341 17.985 73.7141 18.335 73.6641 18.725C73.6141 19.115 73.5842 19.525 73.5842 19.955V26.415H69.5841V13.445L69.5641 13.455Z" fill="black"/>
<path d="M84.4041 19.945C84.4041 18.915 84.5941 17.975 84.9641 17.145C85.3341 16.315 85.8441 15.595 86.5041 14.995C87.1541 14.395 87.9241 13.945 88.8041 13.625C89.6841 13.305 90.6241 13.145 91.6241 13.145C92.6241 13.145 93.5641 13.305 94.4441 13.625C95.3241 13.945 96.0941 14.405 96.7441 14.995C97.3941 15.595 97.9041 16.305 98.2841 17.145C98.6641 17.985 98.8441 18.915 98.8441 19.945C98.8441 20.975 98.6541 21.915 98.2841 22.745C97.9141 23.585 97.3941 24.295 96.7441 24.895C96.0941 25.495 95.3241 25.945 94.4441 26.275C93.5641 26.605 92.6241 26.755 91.6241 26.755C90.6241 26.755 89.6841 26.595 88.8041 26.275C87.9241 25.955 87.1541 25.495 86.5041 24.895C85.8541 24.295 85.3441 23.585 84.9641 22.745C84.5941 21.905 84.4041 20.975 84.4041 19.945ZM88.4041 19.945C88.4041 20.925 88.6841 21.715 89.2441 22.325C89.8041 22.935 90.5941 23.235 91.6041 23.235C92.6141 23.235 93.4041 22.935 93.9641 22.325C94.5241 21.725 94.8041 20.925 94.8041 19.945C94.8041 18.965 94.5241 18.175 93.9641 17.565C93.4041 16.965 92.6141 16.655 91.6041 16.655C90.5941 16.655 89.8041 16.955 89.2441 17.565C88.6841 18.165 88.4041 18.965 88.4041 19.945Z" fill="black"/>
<path d="M114.784 25.335C114.784 27.795 114.164 29.655 112.924 30.925C111.684 32.195 109.804 32.835 107.274 32.835C106.114 32.835 104.974 32.705 103.854 32.445C102.734 32.185 101.704 31.685 100.754 30.935L102.974 27.625C103.594 28.145 104.254 28.555 104.934 28.855C105.624 29.155 106.374 29.305 107.194 29.305C108.424 29.305 109.324 29.005 109.904 28.415C110.484 27.815 110.774 27.055 110.774 26.135V24.885H110.724C110.264 25.505 109.684 25.945 109.004 26.205C108.314 26.465 107.674 26.595 107.064 26.595C106.104 26.595 105.234 26.435 104.444 26.105C103.664 25.775 102.994 25.315 102.424 24.715C101.864 24.115 101.434 23.415 101.134 22.595C100.834 21.775 100.684 20.875 100.684 19.895C100.684 19.045 100.824 18.205 101.094 17.385C101.374 16.565 101.764 15.845 102.264 15.225C102.774 14.605 103.394 14.095 104.124 13.715C104.854 13.335 105.684 13.145 106.604 13.145C107.174 13.145 107.694 13.205 108.164 13.335C108.634 13.455 109.054 13.625 109.434 13.815C109.804 14.015 110.124 14.225 110.394 14.465C110.664 14.705 110.874 14.945 111.034 15.175H111.084V13.465H114.764V25.345L114.784 25.335ZM104.694 19.865C104.694 20.295 104.774 20.695 104.934 21.075C105.094 21.455 105.324 21.795 105.614 22.085C105.904 22.375 106.244 22.615 106.624 22.795C107.004 22.975 107.434 23.065 107.894 23.065C108.354 23.065 108.754 22.975 109.144 22.795C109.534 22.615 109.874 22.385 110.174 22.085C110.474 21.785 110.694 21.455 110.854 21.075C111.014 20.695 111.094 20.285 111.094 19.865C111.094 19.445 111.014 19.035 110.854 18.655C110.694 18.275 110.464 17.935 110.174 17.645C109.884 17.355 109.534 17.115 109.144 16.935C108.754 16.755 108.334 16.665 107.894 16.665C107.454 16.665 107.004 16.755 106.624 16.935C106.244 17.115 105.904 17.345 105.614 17.645C105.324 17.935 105.094 18.275 104.934 18.655C104.774 19.035 104.694 19.445 104.694 19.865Z" fill="black"/>
<path d="M117.504 19.945C117.504 18.915 117.694 17.975 118.064 17.145C118.434 16.315 118.944 15.595 119.604 14.995C120.254 14.395 121.024 13.945 121.904 13.625C122.784 13.305 123.724 13.145 124.724 13.145C125.724 13.145 126.664 13.305 127.544 13.625C128.424 13.945 129.194 14.405 129.844 14.995C130.494 15.595 131.004 16.305 131.384 17.145C131.764 17.985 131.944 18.915 131.944 19.945C131.944 20.975 131.754 21.915 131.384 22.745C131.014 23.585 130.494 24.295 129.844 24.895C129.194 25.495 128.424 25.945 127.544 26.275C126.664 26.605 125.724 26.755 124.724 26.755C123.724 26.755 122.784 26.595 121.904 26.275C121.024 25.955 120.254 25.495 119.604 24.895C118.954 24.295 118.444 23.585 118.064 22.745C117.694 21.905 117.504 20.975 117.504 19.945ZM121.514 19.945C121.514 20.925 121.794 21.715 122.354 22.325C122.914 22.935 123.704 23.235 124.714 23.235C125.724 23.235 126.514 22.935 127.074 22.325C127.634 21.725 127.914 20.925 127.914 19.945C127.914 18.965 127.634 18.175 127.074 17.565C126.514 16.965 125.724 16.655 124.714 16.655C123.704 16.655 122.914 16.955 122.354 17.565C121.794 18.165 121.514 18.965 121.514 19.945Z" fill="black"/>
<path d="M134.274 13.455H138.114V15.215H138.164C138.284 14.965 138.464 14.715 138.694 14.465C138.924 14.215 139.204 13.995 139.524 13.795C139.844 13.595 140.214 13.435 140.614 13.315C141.024 13.195 141.464 13.125 141.944 13.125C142.954 13.125 143.774 13.285 144.404 13.595C145.024 13.905 145.514 14.335 145.864 14.885C146.214 15.435 146.444 16.085 146.574 16.835C146.694 17.585 146.764 18.395 146.764 19.265V26.415H142.764V20.065C142.764 19.695 142.754 19.305 142.724 18.905C142.694 18.505 142.614 18.135 142.484 17.795C142.354 17.455 142.144 17.185 141.874 16.965C141.594 16.755 141.204 16.645 140.684 16.645C140.164 16.645 139.754 16.735 139.434 16.925C139.114 17.115 138.864 17.365 138.704 17.675C138.544 17.985 138.424 18.335 138.374 18.725C138.324 19.115 138.294 19.525 138.294 19.955V26.415H134.294V13.445L134.274 13.455Z" fill="black"/>
</svg>
