<?xml version="1.0" encoding="UTF-8"?>
<svg id="Layer_1" data-name="Layer 1" xmlns="http://www.w3.org/2000/svg" viewBox="0 0 133.17 183.95">
  <defs>
    <style>
      .cls-1 {
        fill: #ef4335;
        stroke-width: 0px;
      }
    </style>
  </defs>
  <path class="cls-1" d="M128.2,142.97s-9.06,27.17-38.99,38.77l.28-12.45c0-.18.05-.36.14-.52l12.35-23.33c.81-1.54,1.13-3.28.92-5.01l-1.12-9.18c-.05-.39.1-.78.4-1.03l4.52-3.82c.88-.76.99-2.09.23-2.97l-7.38-8.55c-.19-.22-.28-.49-.28-.76,0-.39.19-.78.55-1,1.05-.64,1.16-2.13.22-2.92l-13.32-11.2c-.45-.38-.55-1.03-.23-1.53l.13-.21c.61-.95.34-2.22-.61-2.85l-11.45-7.57c-1.05-.69-2.45-.48-3.25.48l-.55.66c-.35.41-.92.54-1.4.31l-12.76-6.09c-1.65-.79-3.63-.13-4.49,1.48l-7.03,13.16c-.2.38-.6.62-1.03.62h-.32c-1.77,0-3.41.95-4.28,2.49l-13.29,23.25c-.98,1.71-.95,3.83.09,5.51l21.75,35.26c.13.2.19.44.18.68-.14,2.02-.8,12.02-1.34,19.3-9.22-2.66-19.48-7.79-29.5-17.22C-2.69,147.88-4.8,109.13,8.1,85.78c0,0,9.24-16.7,3.09-32.98.52.27,17.58,9.56,16.71,30.78,0,0,13.2-9.23,11.88-36.07,0,0,.56-38.27,27.77-47.51,0,0-5.78,26.83,18.86,51.03,0,0,22.88,24.64,20.68,48.39,0,0,12.31-6.16,7.03-39.59,0,0,30.8,32.99,14.08,83.14Z"/>
</svg>