
<svg width="547" height="547" viewBox="0 0 547 547" fill="none" xmlns="http://www.w3.org/2000/svg">
  <path fill-rule="evenodd" clip-rule="evenodd" d="M320.465 121.202C338.607 98.983 359.082 76.862 381.759 55.8204C460.758 129.15 517.428 248.935 517.428 307.012C517.428 411.358 455.574 500.84 367.524 538.788V488.417L402.41 440.047L412.997 392.676L401.847 407.396L264.439 305.863L254.633 306.762L259.141 308.74L320.589 445.583L304.258 447.807L247.239 320.78L207.697 303.283L203.743 272.796L242.701 291.994L278.645 288.702L295.45 254.271L185.821 200.801L106.065 312.021L205.997 462.764L193.266 544.435C97.6545 510.379 29 416.944 29 307.012C29 228.907 105.033 99.3973 212.161 0C253.895 38.7363 290.745 80.2636 320.465 121.202ZM418.563 271.294L356.453 353.056L398.822 385.282L460.932 303.48L418.563 271.294ZM409.785 256.643L343.74 343.635L299.256 309.876L365.3 222.885L409.785 256.643ZM297.496 286.092L316.575 246.976L275.996 227.185L311.82 180.022L353.843 211.952L297.496 286.092ZM249.967 139.551L296.073 174.575L261.504 220.097L208.449 194.227L249.967 139.551Z" fill="#EF4335"/>
</svg>
